<svg width="85" height="55" viewBox="0 0 85 55" fill="none" xmlns="http://www.w3.org/2000/svg">
<path d="M58.3118 0C72.95 0.00012486 84.8165 9.42781 84.8165 21.0574V23.3976C84.8162 35.027 72.9499 44.4549 58.3118 44.455H42.395C41.1054 44.455 39.9175 45.0126 39.2967 45.9106L34.0208 53.5443C32.6787 55.4856 29.1674 55.4855 27.8252 53.5443L22.0468 45.1848C21.5454 44.4594 20.6621 43.9572 19.6557 43.7439C8.33762 41.3452 0.000243278 33.1452 0 23.3976V21.0574C5.20586e-06 9.42773 11.8673 0 26.5057 0H58.3118Z" fill="#2D2D2D"/>
<path d="M58.3118 0C72.95 0.00012486 84.8165 9.42781 84.8165 21.0574V23.3976C84.8162 35.027 72.9499 44.4549 58.3118 44.455H42.395C41.1054 44.455 39.9175 45.0126 39.2967 45.9106L34.0208 53.5443C32.6787 55.4856 29.1674 55.4855 27.8252 53.5443L22.0468 45.1848C21.5454 44.4594 20.6621 43.9572 19.6557 43.7439C8.33762 41.3452 0.000243278 33.1452 0 23.3976V21.0574C5.20586e-06 9.42773 11.8673 0 26.5057 0H58.3118Z" stroke="#757575"/>
</svg>
